<?xml version="1.0" encoding="UTF-8" standalone="no" ?>
<!DOCTYPE svg PUBLIC "-//W3C//DTD SVG 1.1//EN" "http://www.w3.org/Graphics/SVG/1.1/DTD/svg11.dtd">
<svg xmlns="http://www.w3.org/2000/svg" xmlns:xlink="http://www.w3.org/1999/xlink" version="1.1" width="500" height="500" viewBox="0 0 500 500" xml:space="preserve">
<desc>Created with Fabric.js 3.6.3</desc>
<defs>
</defs>
<g transform="matrix(1.536983669548511 0 0 1.5369836695485108 250 218)"  >
<path style="stroke: none; stroke-width: 0; stroke-dasharray: none; stroke-linecap: butt; stroke-dashoffset: 0; stroke-linejoin: miter; stroke-miterlimit: 4; fill: rgb(34,83,120); fill-rule: nonzero; opacity: 1;"  transform=" translate(-52.05, -52.05)" d="M 0 0 v 104.1 h 104.1 V 0 z m 101.7 101.7 H 2.4 V 2.4 h 99.3 z" stroke-linecap="round" />
</g>
<g transform="matrix(1 0 0 1 250 218)"  >
<g style=""   >
		<g transform="matrix(0.7761 0.6306 -0.6306 0.7761 -6.817508900000002 9.239313800000003)"  >
<rect style="stroke: none; stroke-width: 1; stroke-dasharray: none; stroke-linecap: butt; stroke-dashoffset: 0; stroke-linejoin: miter; stroke-miterlimit: 4; fill: rgb(34,83,120); fill-rule: nonzero; opacity: 1;"  x="-0.5" y="-11.46" rx="0" ry="0" width="1" height="22.92" />
</g>
		<g transform="matrix(0.6084 0.7937 -0.7937000000000002 0.6084000000000002 6.989869599999999 9.153490299999994)"  >
<rect style="stroke: none; stroke-width: 1; stroke-dasharray: none; stroke-linecap: butt; stroke-dashoffset: 0; stroke-linejoin: miter; stroke-miterlimit: 4; fill: rgb(34,83,120); fill-rule: nonzero; opacity: 1;"  x="-11.097" y="-0.5" rx="0" ry="0" width="22.194" height="1" />
</g>
		<g transform="matrix(0.2849999999999999 0.9585000000000002 -0.9585000000000001 0.28499999999999986 11.372004999999994 -3.120873499999991)"  >
<rect style="stroke: none; stroke-width: 1; stroke-dasharray: none; stroke-linecap: butt; stroke-dashoffset: 0; stroke-linejoin: miter; stroke-miterlimit: 4; fill: rgb(34,83,120); fill-rule: nonzero; opacity: 1;"  x="-0.5" y="-11.869" rx="0" ry="0" width="1" height="23.738" />
</g>
		<g transform="matrix(0.007399999999999962 1.0000000000000004 -0.9999999999999997 0.0073999999999999596 0.25790180000000384 -11.62827679999999)"  >
<rect style="stroke: none; stroke-width: 1; stroke-dasharray: none; stroke-linecap: butt; stroke-dashoffset: 0; stroke-linejoin: miter; stroke-miterlimit: 4; fill: rgb(34,83,120); fill-rule: nonzero; opacity: 1;"  x="-11.773" y="-0.5" rx="0" ry="0" width="23.546" height="1" />
</g>
		<g transform="matrix(0.9561999999999999 0.29279999999999995 -0.2927999999999999 0.9561999999999998 -10.374673799999995 -3.114983199999992)"  >
<rect style="stroke: none; stroke-width: 1; stroke-dasharray: none; stroke-linecap: butt; stroke-dashoffset: 0; stroke-linejoin: miter; stroke-miterlimit: 4; fill: rgb(34,83,120); fill-rule: nonzero; opacity: 1;"  x="-11.547" y="-0.5" rx="0" ry="0" width="23.094" height="1" />
</g>
		<g transform="matrix(0.9455999999999998 0.3252999999999999 -0.32530000000000003 0.9456 -13.358374550000002 -4.277310400000006)"  >
<rect style="stroke: none; stroke-width: 1; stroke-dasharray: none; stroke-linecap: butt; stroke-dashoffset: 0; stroke-linejoin: miter; stroke-miterlimit: 4; fill: rgb(34,83,120); fill-rule: nonzero; opacity: 1;"  x="-0.5" y="-10.4045" rx="0" ry="0" width="1" height="20.809" />
</g>
		<g transform="matrix(0.8221 0.5694 -0.5694 0.8221 -8.234003149999996 11.644396100000002)"  >
<rect style="stroke: none; stroke-width: 1; stroke-dasharray: none; stroke-linecap: butt; stroke-dashoffset: 0; stroke-linejoin: miter; stroke-miterlimit: 4; fill: rgb(34,83,120); fill-rule: nonzero; opacity: 1;"  x="-10.5705" y="-0.5" rx="0" ry="0" width="21.141" height="1" />
</g>
		<g transform="matrix(0.5722 0.8201 -0.8201 0.5722 8.4287204 11.926650700000005)"  >
<rect style="stroke: none; stroke-width: 1; stroke-dasharray: none; stroke-linecap: butt; stroke-dashoffset: 0; stroke-linejoin: miter; stroke-miterlimit: 4; fill: rgb(34,83,120); fill-rule: nonzero; opacity: 1;"  x="-0.5" y="-10.018" rx="0" ry="0" width="1" height="20.036" />
</g>
		<g transform="matrix(0.28449999999999986 0.9587 -0.9587 0.28449999999999986 13.495566200000006 -3.747952400000006)"  >
<rect style="stroke: none; stroke-width: 1; stroke-dasharray: none; stroke-linecap: butt; stroke-dashoffset: 0; stroke-linejoin: miter; stroke-miterlimit: 4; fill: rgb(34,83,120); fill-rule: nonzero; opacity: 1;"  x="-10.292" y="-0.5" rx="0" ry="0" width="20.584" height="1" />
</g>
		<g transform="matrix(0.9997 0.024300000000000002 -0.024299999999999995 0.9996999999999998 0.7959602499999985 -13.984054650000001)"  >
<rect style="stroke: none; stroke-width: 1; stroke-dasharray: none; stroke-linecap: butt; stroke-dashoffset: 0; stroke-linejoin: miter; stroke-miterlimit: 4; fill: rgb(34,83,120); fill-rule: nonzero; opacity: 1;"  x="-10.6005" y="-0.5" rx="0" ry="0" width="21.201" height="1" />
</g>
		<g transform="matrix(0.5784 0.8158 -0.8158000000000001 0.5784000000000001 -13.288634199999995 27.237230600000025)"  >
<rect style="stroke: none; stroke-width: 1; stroke-dasharray: none; stroke-linecap: butt; stroke-dashoffset: 0; stroke-linejoin: miter; stroke-miterlimit: 4; fill: rgb(34,83,120); fill-rule: nonzero; opacity: 1;"  x="-0.5" y="-16.55" rx="0" ry="0" width="1" height="33.1" />
</g>
		<g transform="matrix(0.3351000000000002 0.9422 -0.9422 0.3351000000000002 21.902101099999985 21.44275120000002)"  >
<rect style="stroke: none; stroke-width: 1; stroke-dasharray: none; stroke-linecap: butt; stroke-dashoffset: 0; stroke-linejoin: miter; stroke-miterlimit: 4; fill: rgb(34,83,120); fill-rule: nonzero; opacity: 1;"  x="-16.246" y="-0.5" rx="0" ry="0" width="32.492" height="1" />
</g>
		<g transform="matrix(0.010699999999999772 0.9999 -0.9999000000000002 0.010699999999999774 26.950130749999985 -13.913579749999995)"  >
<rect style="stroke: none; stroke-width: 1; stroke-dasharray: none; stroke-linecap: butt; stroke-dashoffset: 0; stroke-linejoin: miter; stroke-miterlimit: 4; fill: rgb(34,83,120); fill-rule: nonzero; opacity: 1;"  x="-0.5" y="-16.5415" rx="0" ry="0" width="1" height="33.083" />
</g>
		<g transform="matrix(0.9526999999999999 0.3039 -0.3039000000000001 0.9527 -4.805613949999992 -30.284370150000008)"  >
<rect style="stroke: none; stroke-width: 1; stroke-dasharray: none; stroke-linecap: butt; stroke-dashoffset: 0; stroke-linejoin: miter; stroke-miterlimit: 4; fill: rgb(34,83,120); fill-rule: nonzero; opacity: 1;"  x="-0.4995" y="-16.964" rx="0" ry="0" width="0.999" height="33.928" />
</g>
		<g transform="matrix(0.8004 0.5994999999999998 -0.5994999999999999 0.8004000000000002 -30.2161839 -4.311695950000004)"  >
<rect style="stroke: none; stroke-width: 1; stroke-dasharray: none; stroke-linecap: butt; stroke-dashoffset: 0; stroke-linejoin: miter; stroke-miterlimit: 4; fill: rgb(34,83,120); fill-rule: nonzero; opacity: 1;"  x="-16.5805" y="-0.5" rx="0" ry="0" width="33.161" height="1" />
</g>
		<g transform="matrix(0.9605 0.2782 -0.2782 0.9605 -35.713274 -9.246705299999995)"  >
<rect style="stroke: none; stroke-width: 1; stroke-dasharray: none; stroke-linecap: butt; stroke-dashoffset: 0; stroke-linejoin: miter; stroke-miterlimit: 4; fill: rgb(34,83,120); fill-rule: nonzero; opacity: 1;"  x="-0.5" y="-28.54" rx="0" ry="0" width="1" height="57.08" />
</g>
		<g transform="matrix(0.8375 0.5464 -0.5464 0.8375 -21.214333049999997 33.001211999999995)"  >
<rect style="stroke: none; stroke-width: 1; stroke-dasharray: none; stroke-linecap: butt; stroke-dashoffset: 0; stroke-linejoin: miter; stroke-miterlimit: 4; fill: rgb(34,83,120); fill-rule: nonzero; opacity: 1;"  x="-27.0165" y="-0.5" rx="0" ry="0" width="54.033" height="1" />
</g>
		<g transform="matrix(0.6376 0.7704 -0.7704 0.6376 22.091584400000002 30.503579600000005)"  >
<rect style="stroke: none; stroke-width: 1; stroke-dasharray: none; stroke-linecap: butt; stroke-dashoffset: 0; stroke-linejoin: miter; stroke-miterlimit: 4; fill: rgb(34,83,120); fill-rule: nonzero; opacity: 1;"  x="-0.5" y="-27.1075" rx="0" ry="0" width="1" height="54.215" />
</g>
		<g transform="matrix(0.377 0.9261999999999999 -0.9261999999999999 0.377 32.55547980000003 -11.923573400000006)"  >
<rect style="stroke: none; stroke-width: 1; stroke-dasharray: none; stroke-linecap: butt; stroke-dashoffset: 0; stroke-linejoin: miter; stroke-miterlimit: 4; fill: rgb(34,83,120); fill-rule: nonzero; opacity: 1;"  x="-27.095" y="-0.5" rx="0" ry="0" width="54.19" height="1" />
</g>
		<g transform="matrix(0.014600000000000045 0.9999 -0.9999 0.014600000000000045 -3.170685399999993 -37.151189200000005)"  >
<rect style="stroke: none; stroke-width: 1; stroke-dasharray: none; stroke-linecap: butt; stroke-dashoffset: 0; stroke-linejoin: miter; stroke-miterlimit: 4; fill: rgb(34,83,120); fill-rule: nonzero; opacity: 1;"  x="-0.5" y="-25.296" rx="0" ry="0" width="1" height="50.592" />
</g>
		<g transform="matrix(1 0 0 1 -28.551000000000002 17.991)"  >
<rect style="stroke: none; stroke-width: 1; stroke-dasharray: none; stroke-linecap: butt; stroke-dashoffset: 0; stroke-linejoin: miter; stroke-miterlimit: 4; fill: rgb(34,83,120); fill-rule: nonzero; opacity: 1;"  x="-14.933" y="-0.5" rx="0" ry="0" width="29.866" height="1" />
</g>
		<g transform="matrix(0.20239999999999972 0.9793000000000001 -0.9793000000000002 0.20239999999999972 -25.169280099999995 -21.34301695000001)"  >
<rect style="stroke: none; stroke-width: 1; stroke-dasharray: none; stroke-linecap: butt; stroke-dashoffset: 0; stroke-linejoin: miter; stroke-miterlimit: 4; fill: rgb(34,83,120); fill-rule: nonzero; opacity: 1;"  x="-15.7465" y="-0.5" rx="0" ry="0" width="31.493" height="1" />
</g>
		<g transform="matrix(0.5429 0.8398 -0.8398 0.5429 11.475315000000014 -30.159685999999997)"  >
<rect style="stroke: none; stroke-width: 1; stroke-dasharray: none; stroke-linecap: butt; stroke-dashoffset: 0; stroke-linejoin: miter; stroke-miterlimit: 4; fill: rgb(34,83,120); fill-rule: nonzero; opacity: 1;"  x="-0.5" y="-13.09" rx="0" ry="0" width="1" height="26.18" />
</g>
		<g transform="matrix(0.7128 0.7014000000000001 -0.7014 0.7127999999999999 33.0735904 3.40965520000001)"  >
<rect style="stroke: none; stroke-width: 1; stroke-dasharray: none; stroke-linecap: butt; stroke-dashoffset: 0; stroke-linejoin: miter; stroke-miterlimit: 4; fill: rgb(34,83,120); fill-rule: nonzero; opacity: 1;"  x="-14.003" y="-0.5" rx="0" ry="0" width="28.006" height="1" />
</g>
		<g transform="matrix(0.9215 0.3885 -0.3885 0.9215 7.820954000000001 32.823178)"  >
<rect style="stroke: none; stroke-width: 1; stroke-dasharray: none; stroke-linecap: butt; stroke-dashoffset: 0; stroke-linejoin: miter; stroke-miterlimit: 4; fill: rgb(34,83,120); fill-rule: nonzero; opacity: 1;"  x="-0.5" y="-16.178" rx="0" ry="0" width="1" height="32.356" />
</g>
		<g transform="matrix(1 0 0 1 -43.59 -14.953000000000003)"  >
<circle style="stroke: none; stroke-width: 1; stroke-dasharray: none; stroke-linecap: butt; stroke-dashoffset: 0; stroke-linejoin: miter; stroke-miterlimit: 4; fill: rgb(34,83,120); fill-rule: nonzero; opacity: 1;"  cx="0" cy="0" r="2.928" />
</g>
		<g transform="matrix(1 0 0 1 -17.021 5.017000000000004)"  >
<circle style="stroke: none; stroke-width: 1; stroke-dasharray: none; stroke-linecap: butt; stroke-dashoffset: 0; stroke-linejoin: miter; stroke-miterlimit: 4; fill: rgb(34,83,120); fill-rule: nonzero; opacity: 1;"  cx="0" cy="0" r="4.79" />
</g>
		<g transform="matrix(1 0 0 1 43.05 12.521000000000004)"  >
<circle style="stroke: none; stroke-width: 1; stroke-dasharray: none; stroke-linecap: butt; stroke-dashoffset: 0; stroke-linejoin: miter; stroke-miterlimit: 4; fill: rgb(34,83,120); fill-rule: nonzero; opacity: 1;"  cx="0" cy="0" r="2.928" />
</g>
		<g transform="matrix(1 0 0 1 43.98699999999999 -14.590000000000003)"  >
<circle style="stroke: none; stroke-width: 1; stroke-dasharray: none; stroke-linecap: butt; stroke-dashoffset: 0; stroke-linejoin: miter; stroke-miterlimit: 4; fill: rgb(34,83,120); fill-rule: nonzero; opacity: 1;"  cx="0" cy="0" r="2.927" />
</g>
		<g transform="matrix(1 0 0 1 1.269000000000001 47.07299999999999)"  >
<circle style="stroke: none; stroke-width: 1; stroke-dasharray: none; stroke-linecap: butt; stroke-dashoffset: 0; stroke-linejoin: miter; stroke-miterlimit: 4; fill: rgb(34,83,120); fill-rule: nonzero; opacity: 1;"  cx="0" cy="0" r="2.928" />
</g>
		<g transform="matrix(1 0 0 1 -43.986000000000004 17.55)"  >
<circle style="stroke: none; stroke-width: 1; stroke-dasharray: none; stroke-linecap: butt; stroke-dashoffset: 0; stroke-linejoin: miter; stroke-miterlimit: 4; fill: rgb(34,83,120); fill-rule: nonzero; opacity: 1;"  cx="0" cy="0" r="2.928" />
</g>
		<g transform="matrix(1 0 0 1 0.3319999999999981 -0.3590000000000044)"  >
<circle style="stroke: none; stroke-width: 1; stroke-dasharray: none; stroke-linecap: butt; stroke-dashoffset: 0; stroke-linejoin: miter; stroke-miterlimit: 4; fill: rgb(34,83,120); fill-rule: nonzero; opacity: 1;"  cx="0" cy="0" r="5.511" />
</g>
		<g transform="matrix(1 0 0 1 -10.184 -15.000000000000002)"  >
<circle style="stroke: none; stroke-width: 1; stroke-dasharray: none; stroke-linecap: butt; stroke-dashoffset: 0; stroke-linejoin: miter; stroke-miterlimit: 4; fill: rgb(34,83,120); fill-rule: nonzero; opacity: 1;"  cx="0" cy="0" r="4.789" />
</g>
		<g transform="matrix(1 0 0 1 10.904000000000003 -14.158000000000001)"  >
<circle style="stroke: none; stroke-width: 1; stroke-dasharray: none; stroke-linecap: butt; stroke-dashoffset: 0; stroke-linejoin: miter; stroke-miterlimit: 4; fill: rgb(34,83,120); fill-rule: nonzero; opacity: 1;"  cx="0" cy="0" r="4.79" />
</g>
		<g transform="matrix(1 0 0 1 27.648999999999994 36.10899999999997)"  >
<circle style="stroke: none; stroke-width: 1; stroke-dasharray: none; stroke-linecap: butt; stroke-dashoffset: 0; stroke-linejoin: miter; stroke-miterlimit: 4; fill: rgb(34,83,120); fill-rule: nonzero; opacity: 1;"  cx="0" cy="0" r="2.927" />
</g>
		<g transform="matrix(1 0 0 1 0.6349999999999989 17.209999999999994)"  >
<circle style="stroke: none; stroke-width: 1; stroke-dasharray: none; stroke-linecap: butt; stroke-dashoffset: 0; stroke-linejoin: miter; stroke-miterlimit: 4; fill: rgb(34,83,120); fill-rule: nonzero; opacity: 1;"  cx="0" cy="0" r="4.79" />
</g>
		<g transform="matrix(1 0 0 1 16.735 5.478000000000002)"  >
<circle style="stroke: none; stroke-width: 1; stroke-dasharray: none; stroke-linecap: butt; stroke-dashoffset: 0; stroke-linejoin: miter; stroke-miterlimit: 4; fill: rgb(34,83,120); fill-rule: nonzero; opacity: 1;"  cx="0" cy="0" r="4.79" />
</g>
		<g transform="matrix(1 0 0 1 -21.751 -7.121999999999998)"  >
<circle style="stroke: none; stroke-width: 1; stroke-dasharray: none; stroke-linecap: butt; stroke-dashoffset: 0; stroke-linejoin: miter; stroke-miterlimit: 4; fill: rgb(34,83,120); fill-rule: nonzero; opacity: 1;"  cx="0" cy="0" r="2.028" />
</g>
		<g transform="matrix(1 0 0 1 0.6330000000000009 -23.742999999999995)"  >
<circle style="stroke: none; stroke-width: 1; stroke-dasharray: none; stroke-linecap: butt; stroke-dashoffset: 0; stroke-linejoin: miter; stroke-miterlimit: 4; fill: rgb(34,83,120); fill-rule: nonzero; opacity: 1;"  cx="0" cy="0" r="1.929" />
</g>
		<g transform="matrix(1 0 0 1 -14.119 17.432000000000002)"  >
<circle style="stroke: none; stroke-width: 1; stroke-dasharray: none; stroke-linecap: butt; stroke-dashoffset: 0; stroke-linejoin: miter; stroke-miterlimit: 4; fill: rgb(34,83,120); fill-rule: nonzero; opacity: 1;"  cx="0" cy="0" r="2.128" />
</g>
		<g transform="matrix(1 0 0 1 13.833000000000002 17.256000000000004)"  >
<circle style="stroke: none; stroke-width: 1; stroke-dasharray: none; stroke-linecap: butt; stroke-dashoffset: 0; stroke-linejoin: miter; stroke-miterlimit: 4; fill: rgb(34,83,120); fill-rule: nonzero; opacity: 1;"  cx="0" cy="0" r="2.053" />
</g>
		<g transform="matrix(1 0 0 1 0.03100000000000147 -47.073)"  >
<circle style="stroke: none; stroke-width: 1; stroke-dasharray: none; stroke-linecap: butt; stroke-dashoffset: 0; stroke-linejoin: miter; stroke-miterlimit: 4; fill: rgb(34,83,120); fill-rule: nonzero; opacity: 1;"  cx="0" cy="0" r="2.928" />
</g>
		<g transform="matrix(1 0 0 1 22.616000000000003 -37.66900000000001)"  >
<circle style="stroke: none; stroke-width: 1; stroke-dasharray: none; stroke-linecap: butt; stroke-dashoffset: 0; stroke-linejoin: miter; stroke-miterlimit: 4; fill: rgb(34,83,120); fill-rule: nonzero; opacity: 1;"  cx="0" cy="0" r="2.928" />
</g>
		<g transform="matrix(1 0 0 1 23.085000000000015 -7.122000000000002)"  >
<circle style="stroke: none; stroke-width: 1; stroke-dasharray: none; stroke-linecap: butt; stroke-dashoffset: 0; stroke-linejoin: miter; stroke-miterlimit: 4; fill: rgb(34,83,120); fill-rule: nonzero; opacity: 1;"  cx="0" cy="0" r="2.225" />
</g>
		<g transform="matrix(1 0 0 1 -26.669 36.108999999999995)"  >
<circle style="stroke: none; stroke-width: 1; stroke-dasharray: none; stroke-linecap: butt; stroke-dashoffset: 0; stroke-linejoin: miter; stroke-miterlimit: 4; fill: rgb(34,83,120); fill-rule: nonzero; opacity: 1;"  cx="0" cy="0" r="2.928" />
</g>
		<g transform="matrix(1 0 0 1 -27.97 -37.355000000000004)"  >
<circle style="stroke: none; stroke-width: 1; stroke-dasharray: none; stroke-linecap: butt; stroke-dashoffset: 0; stroke-linejoin: miter; stroke-miterlimit: 4; fill: rgb(34,83,120); fill-rule: nonzero; opacity: 1;"  cx="0" cy="0" r="2.928" />
</g>
</g>
</g>
<g transform="matrix(1 0 0 1 251 330.31798079619705)" style=""  ><path fill="#000000" opacity="1" d="M-177.23 10.29C-176.93 11.02-176.31 11.57-175.57 11.57L-169.31 11.57C-168.57 11.57-168.05 11.02-168.39 10.29L-178.70-12.96C-179.03-13.70-179.62-14.22-180.36-14.22L-187.91-14.22C-188.65-14.22-189.24-13.66-189.57-12.93L-199.89 10.29C-200.22 11.02-199.71 11.57-198.97 11.57L-193.07 11.57C-192.34 11.57-191.71 11.02-191.41 10.29L-190.13 6.97L-178.52 6.97ZM-184.41-6.48L-184.05-6.48L-181.10 0.89L-187.55 0.89Z"/><path fill="#000000" opacity="1" d="M-152.25-14.95C-162.01-14.95-167.35-9.61-167.35-1.32C-167.35 6.97-162.01 12.31-152.25 12.31C-143.40 12.31-138.61 7.52-138.61 3.10C-138.61 2.18-139.17 1.63-140.09 1.63L-144.69 1.63C-145.80 1.63-146.39 2.18-146.90 3.10C-147.83 4.76-149.30 6.23-152.25 6.23C-156.30 6.23-158.88 3.65-158.88-1.32C-158.88-6.30-156.30-8.87-152.25-8.87C-149.48-8.87-148.19-7.59-147.27-6.11C-146.72-5.19-146.17-4.64-145.06-4.64L-140.46-4.64C-139.54-4.64-138.98-5.19-138.98-6.11C-138.98-10.35-143.59-14.95-152.25-14.95Z"/><path fill="#000000" opacity="1" d="M-127.01-6.66C-127.01-7.77-125.90-8.87-122.59-8.87C-119.82-8.87-118.68-7.77-118.35-7.22C-117.83-6.30-117.24-5.74-116.14-5.74L-111.53-5.74C-110.61-5.74-110.06-6.30-110.06-7.22C-110.06-10.90-114.11-14.95-122.59-14.95C-131.61-14.95-135.48-11.09-135.48-6.66C-135.48 3.65-117.61 0.15-117.61 3.84C-117.61 4.94-118.90 6.23-122.59 6.23C-126.27 6.23-127.38 5.13-127.93 4.21C-128.45 3.32-129.03 2.73-130.14 2.73L-134.75 2.73C-135.67 2.73-136.22 3.28-136.22 4.21C-136.22 8.26-132.17 12.31-122.59 12.31C-113.19 12.31-109.14 8.26-109.14 3.84C-109.14-6.48-127.01-2.98-127.01-6.66Z"/><path fill="#000000" opacity="1" d="M-98.60-14.22C-100.26-14.22-100.99-13.48-101.73-12.93L-106.71-9.24C-107.26-8.84-107.44-8.14-107.07-7.59L-105.23-4.64C-104.90-4.08-103.98-3.90-103.39-4.27L-101.55-5.37L-101.18-5.37L-101.18 10.29C-101.18 11.02-100.63 11.57-99.89 11.57L-94.36 11.57C-93.63 11.57-93.07 11.02-93.07 10.29L-93.07-12.93C-93.07-13.66-93.63-14.22-94.36-14.22Z"/><path fill="#000000" opacity="1" d=""/><path fill="#000000" opacity="1" d="M-60.57-14.22C-61.50-14.22-62.05-13.66-62.23-12.93L-65.73 1.63L-66.10 1.63L-69.97-12.93C-70.15-13.66-70.71-14.22-71.63-14.22L-77.52-14.22C-78.08-14.22-78.67-13.66-78.45-12.93L-72.00 10.29C-71.78 11.02-71.26 11.57-70.34 11.57L-62.97 11.57C-62.05 11.57-61.50 11.02-61.31 10.29L-57.44-3.90L-57.07-3.90L-53.21 10.29C-53.02 11.02-52.47 11.57-51.55 11.57L-44.18 11.57C-43.26 11.57-42.74 11.02-42.52 10.29L-36.07-12.93C-35.85-13.66-36.44-14.22-36.99-14.22L-42.89-14.22C-43.81-14.22-44.36-13.66-44.55-12.93L-48.42 1.63L-48.78 1.63L-52.28-12.93C-52.47-13.66-53.02-14.22-53.94-14.22Z"/><path fill="#000000" opacity="1" d="M-7.81-12.93C-7.81-13.66-8.36-14.22-9.10-14.22L-31.58-14.22C-32.31-14.22-32.87-13.66-32.87-12.93L-32.87 10.29C-32.87 11.02-32.31 11.57-31.58 11.57L-9.10 11.57C-8.36 11.57-7.81 11.02-7.81 10.29L-7.81 6.60C-7.81 5.86-8.36 5.31-9.10 5.31L-24.76 5.31L-24.76 1.63L-13.15 1.63C-12.42 1.63-11.86 1.07-11.86 0.34L-11.86-3.35C-11.86-4.08-12.42-4.64-13.15-4.64L-24.76-4.64L-24.76-7.95L-9.10-7.95C-8.36-7.95-7.81-8.51-7.81-9.24Z"/><path fill="#000000" opacity="1" d="M21.67-7.03C21.67-10.90 18.35-14.22 10.80-14.22L-2.47-14.22C-3.21-14.22-3.76-13.66-3.76-12.93L-3.76 10.29C-3.76 11.02-3.21 11.57-2.47 11.57L12.27 11.57C20.01 11.57 23.51 8.07 23.51 4.02C23.51-0.77 17.98-1.87 17.98-1.87L17.98-2.24C17.98-2.24 21.67-3.35 21.67-7.03ZM12.27 1.26C14.11 1.26 15.03 2.18 15.03 3.47C15.03 4.76 14.11 5.68 12.27 5.68L4.35 5.68L4.35 1.26ZM10.80-8.32C12.49-8.32 13.19-7.59 13.19-6.48C13.19-5.37 12.45-4.64 10.80-4.64L4.35-4.64L4.35-8.32Z"/><path fill="#000000" opacity="1" d="M35.11-6.66C35.11-7.77 36.22-8.87 39.54-8.87C42.30-8.87 43.44-7.77 43.77-7.22C44.29-6.30 44.88-5.74 45.98-5.74L50.59-5.74C51.51-5.74 52.06-6.30 52.06-7.22C52.06-10.90 48.01-14.95 39.54-14.95C30.51-14.95 26.64-11.09 26.64-6.66C26.64 3.65 44.51 0.15 44.51 3.84C44.51 4.94 43.22 6.23 39.54 6.23C35.85 6.23 34.75 5.13 34.19 4.21C33.68 3.32 33.09 2.73 31.98 2.73L27.38 2.73C26.46 2.73 25.90 3.28 25.90 4.21C25.90 8.26 29.96 12.31 39.54 12.31C48.93 12.31 52.98 8.26 52.98 3.84C52.98-6.48 35.11-2.98 35.11-6.66Z"/><path fill="#000000" opacity="1" d="M80.80-12.93C80.80-13.66 80.25-14.22 79.51-14.22L55.93-14.22C55.20-14.22 54.64-13.66 54.64-12.93L54.64-9.24C54.64-8.51 55.20-7.95 55.93-7.95L63.67-7.95L63.67 10.29C63.67 11.02 64.22 11.57 64.96 11.57L70.49 11.57C71.22 11.57 71.78 11.02 71.78 10.29L71.78-7.95L79.51-7.95C80.25-7.95 80.80-8.51 80.80-9.24Z"/><path fill="#000000" opacity="1" d="M97.57 12.31C106.60 12.31 111.20 7.89 111.20 0.85L111.20-12.93C111.20-13.66 110.65-14.22 109.91-14.22L104.38-14.22C103.65-14.22 103.10-13.66 103.10-12.93L103.10 0.89C103.10 4.21 101.07 6.23 97.57 6.23C94.07 6.23 92.04 4.21 92.04 0.89L92.04-12.93C92.04-13.66 91.49-14.22 90.75-14.22L85.22-14.22C84.49-14.22 83.94-13.66 83.94-12.93L83.94 0.89C83.94 7.89 88.36 12.31 97.57 12.31Z"/><path fill="#000000" opacity="1" d="M117.83 11.57L129.44 11.57C139.39 11.57 144.55 6.42 144.55-1.32C144.55-9.06 139.39-14.22 129.44-14.22L117.83-14.22C117.10-14.22 116.54-13.66 116.54-12.93L116.54 10.29C116.54 11.02 117.10 11.57 117.83 11.57ZM124.65 5.68L124.65-8.32L129.44-8.32C133.68-8.32 136.07-5.93 136.07-1.32C136.07 3.28 133.68 5.68 129.44 5.68Z"/><path fill="#000000" opacity="1" d="M165.18-12.93C165.18-13.66 164.63-14.22 163.89-14.22L148.78-14.22C148.05-14.22 147.49-13.66 147.49-12.93L147.49-9.24C147.49-8.51 148.05-7.95 148.78-7.95L152.28-7.95L152.28 5.31L148.78 5.31C148.05 5.31 147.49 5.86 147.49 6.60L147.49 10.29C147.49 11.02 148.05 11.57 148.78 11.57L163.89 11.57C164.63 11.57 165.18 11.02 165.18 10.29L165.18 6.60C165.18 5.86 164.63 5.31 163.89 5.31L160.39 5.31L160.39-7.95L163.89-7.95C164.63-7.95 165.18-8.51 165.18-9.24Z"/><path fill="#000000" opacity="1" d="M183.24 6.23C179.18 6.23 176.60 3.65 176.60-1.32C176.60-6.30 179.18-8.87 183.24-8.87C187.29-8.87 189.87-6.30 189.87-1.32C189.87 3.65 187.29 6.23 183.24 6.23ZM183.24-14.95C173.47-14.95 168.13-9.61 168.13-1.32C168.13 6.97 173.47 12.31 183.24 12.31C193.00 12.31 198.34 6.97 198.34-1.32C198.34-9.61 193.00-14.95 183.24-14.95Z"/></g><g transform="matrix(1 0 0 1 250.5 355.9192669344679)" style=""  ><path fill="#000000" opacity="1" d="M-190.95 4.13L-192.08 4.13L-192.08-3.23L-194.54 1.71L-195.27 1.71L-197.70-3.23L-197.70 4.13L-198.83 4.13L-198.83-4.75L-197.23-4.75L-194.88 0.08L-192.50-4.75L-190.95-4.75L-190.95 4.13Z"/><path fill="#000000" opacity="1" d="M-177.87 0.78L-177.87 0.78Q-177.87 2.53-178.62 3.43Q-179.37 4.32-180.81 4.32L-180.81 4.32Q-182.26 4.32-183.02 3.44Q-183.78 2.55-183.78 0.78L-183.78 0.78Q-183.78-1.02-183.02-1.91Q-182.25-2.79-180.81-2.79L-180.81-2.79Q-179.37-2.79-178.62-1.89Q-177.87-0.99-177.87 0.78ZM-179.01 0.78L-179.01 0.78Q-179.01-0.59-179.46-1.22Q-179.91-1.84-180.81-1.84L-180.81-1.84Q-181.74-1.84-182.19-1.21Q-182.64-0.59-182.64 0.78L-182.64 0.78Q-182.64 2.09-182.21 2.73Q-181.78 3.36-180.81 3.36L-180.81 3.36Q-179.90 3.36-179.45 2.73Q-179.01 2.11-179.01 0.78Z"/><path fill="#000000" opacity="1" d="M-165.42 4.13L-166.53 4.13L-166.53 3.46Q-166.91 3.82-167.44 4.07Q-167.98 4.32-168.58 4.32L-168.58 4.32Q-169.79 4.32-170.45 3.41Q-171.11 2.50-171.11 0.82L-171.11 0.82Q-171.11-0.83-170.39-1.81Q-169.68-2.79-168.41-2.79L-168.41-2.79Q-167.39-2.79-166.53-2.05L-166.53-2.05L-166.53-5.42L-165.42-5.42L-165.42 4.13ZM-166.53 2.47L-166.53-1.09Q-167.41-1.81-168.27-1.81L-168.27-1.81Q-169.02-1.81-169.49-1.18Q-169.97-0.55-169.97 0.79L-169.97 0.79Q-169.97 3.34-168.37 3.34L-168.37 3.34Q-167.84 3.34-167.36 3.07Q-166.89 2.81-166.53 2.47L-166.53 2.47Z"/><path fill="#000000" opacity="1" d="M-152.82 0.89L-157.19 0.89Q-157.19 2.23-156.74 2.79Q-156.28 3.36-155.27 3.36L-155.27 3.36Q-154.82 3.36-154.48 3.17Q-154.15 2.98-153.83 2.56L-153.83 2.56L-152.92 3.12Q-153.31 3.70-153.86 4.01Q-154.41 4.32-155.35 4.32L-155.35 4.32Q-156.85 4.32-157.59 3.45Q-158.33 2.58-158.33 0.82L-158.33 0.82Q-158.33-1.03-157.61-1.91Q-156.89-2.79-155.43-2.79L-155.43-2.79Q-154.13-2.79-153.47-2.04Q-152.82-1.29-152.82 0.28L-152.82 0.28L-152.82 0.89ZM-157.18 0.03L-153.90 0.03Q-153.91-0.88-154.28-1.38Q-154.65-1.88-155.47-1.88L-155.47-1.88Q-156.26-1.88-156.66-1.42Q-157.05-0.97-157.18 0.03L-157.18 0.03Z"/><path fill="#000000" opacity="1" d="M-144.65 4.13L-145.76 4.13L-145.76-5.42L-144.65-5.42L-144.65 4.13Z"/><path fill="#000000" opacity="1" d="M-131.59 0.78L-131.59 0.78Q-131.59 2.53-132.35 3.43Q-133.10 4.32-134.54 4.32L-134.54 4.32Q-135.98 4.32-136.75 3.44Q-137.51 2.55-137.51 0.78L-137.51 0.78Q-137.51-1.02-136.74-1.91Q-135.98-2.79-134.54-2.79L-134.54-2.79Q-133.09-2.79-132.34-1.89Q-131.59-0.99-131.59 0.78ZM-132.73 0.78L-132.73 0.78Q-132.73-0.59-133.19-1.22Q-133.64-1.84-134.54-1.84L-134.54-1.84Q-135.47-1.84-135.92-1.21Q-136.37-0.59-136.37 0.78L-136.37 0.78Q-136.37 2.09-135.94 2.73Q-135.50 3.36-134.54 3.36L-134.54 3.36Q-133.62 3.36-133.18 2.73Q-132.73 2.11-132.73 0.78Z"/><path fill="#000000" opacity="1" d="M-119.90 2.31L-119.90 2.31Q-119.90 3.25-120.57 3.79Q-121.24 4.32-122.47 4.32L-122.47 4.32Q-123.31 4.32-123.97 4.01Q-124.64 3.69-124.95 3.11L-124.95 3.11L-124.06 2.57Q-123.56 3.39-122.43 3.39L-122.43 3.39Q-121.70 3.39-121.34 3.11Q-120.98 2.83-120.98 2.36L-120.98 2.36Q-120.98 2.07-121.11 1.90Q-121.24 1.72-121.50 1.59Q-121.77 1.46-122.61 1.23L-122.61 1.23Q-123.81 0.96-124.30 0.47Q-124.79-0.02-124.79-0.82L-124.79-0.82Q-124.79-1.72-124.15-2.25Q-123.51-2.79-122.37-2.79L-122.37-2.79Q-121.49-2.79-120.90-2.45Q-120.30-2.10-120.02-1.61L-120.02-1.61L-120.90-1.07Q-121.43-1.86-122.40-1.86L-122.40-1.86Q-122.95-1.86-123.33-1.62Q-123.71-1.38-123.71-0.86L-123.71-0.86Q-123.71-0.41-123.38-0.20Q-123.04 0.00-122.33 0.18L-122.33 0.18Q-121.19 0.47-120.75 0.73Q-120.32 0.98-120.11 1.36Q-119.90 1.73-119.90 2.31Z"/><path fill="#000000" opacity="1" d=""/><path fill="#000000" opacity="1" d="M-98.75 4.13L-99.86 4.13L-99.86 3.46Q-100.23 3.82-100.77 4.07Q-101.30 4.32-101.90 4.32L-101.90 4.32Q-103.11 4.32-103.77 3.41Q-104.43 2.50-104.43 0.82L-104.43 0.82Q-104.43-0.83-103.72-1.81Q-103.00-2.79-101.73-2.79L-101.73-2.79Q-100.71-2.79-99.86-2.05L-99.86-2.05L-99.86-5.42L-98.75-5.42L-98.75 4.13ZM-99.86 2.47L-99.86-1.09Q-100.73-1.81-101.59-1.81L-101.59-1.81Q-102.34-1.81-102.82-1.18Q-103.29-0.55-103.29 0.79L-103.29 0.79Q-103.29 3.34-101.69 3.34L-101.69 3.34Q-101.16 3.34-100.69 3.07Q-100.21 2.81-99.86 2.47L-99.86 2.47Z"/><path fill="#000000" opacity="1" d="M-86.14 0.89L-90.51 0.89Q-90.51 2.23-90.06 2.79Q-89.60 3.36-88.60 3.36L-88.60 3.36Q-88.15 3.36-87.81 3.17Q-87.47 2.98-87.15 2.56L-87.15 2.56L-86.24 3.12Q-86.63 3.70-87.18 4.01Q-87.73 4.32-88.67 4.32L-88.67 4.32Q-90.17 4.32-90.91 3.45Q-91.65 2.58-91.65 0.82L-91.65 0.82Q-91.65-1.03-90.93-1.91Q-90.21-2.79-88.76-2.79L-88.76-2.79Q-87.45-2.79-86.79-2.04Q-86.14-1.29-86.14 0.28L-86.14 0.28L-86.14 0.89ZM-90.50 0.03L-87.22 0.03Q-87.23-0.88-87.60-1.38Q-87.97-1.88-88.79-1.88L-88.79-1.88Q-89.58-1.88-89.98-1.42Q-90.37-0.97-90.50 0.03L-90.50 0.03Z"/><path fill="#000000" opacity="1" d=""/><path fill="#000000" opacity="1" d="M-69.88 4.13L-71.10 4.13L-68.06-4.75L-66.52-4.75L-63.49 4.13L-64.74 4.13L-65.51 1.82L-69.13 1.82L-69.88 4.13ZM-67.32-3.58L-68.77 0.74L-65.88 0.74L-67.32-3.58Z"/><path fill="#000000" opacity="1" d="M-51.13 0.71L-51.13 0.71Q-51.13 2.37-51.86 3.35Q-52.58 4.32-53.84 4.32L-53.84 4.32Q-54.85 4.32-55.72 3.57L-55.72 3.57L-55.72 6.66L-56.82 6.66L-56.82-2.60L-55.72-2.60L-55.72-1.93Q-55.34-2.29-54.81-2.54Q-54.28-2.79-53.67-2.79L-53.67-2.79Q-52.47-2.79-51.80-1.89Q-51.13-0.98-51.13 0.71ZM-52.28 0.74L-52.28 0.74Q-52.28-1.81-53.88-1.81L-53.88-1.81Q-54.40-1.81-54.88-1.55Q-55.37-1.29-55.72-0.95L-55.72-0.95L-55.72 2.61Q-54.86 3.34-53.99 3.34L-53.99 3.34Q-53.24 3.34-52.76 2.71Q-52.28 2.08-52.28 0.74Z"/><path fill="#000000" opacity="1" d="M-40.17-2.57L-40.41-1.51Q-40.59-1.59-40.92-1.59L-40.92-1.59Q-41.41-1.59-41.87-1.36Q-42.33-1.13-42.94-0.52L-42.94-0.52L-42.94 4.13L-44.04 4.13L-44.04-2.60L-42.94-2.60L-42.94-1.51Q-42.48-1.98-41.97-2.34Q-41.46-2.70-40.84-2.70L-40.84-2.70Q-40.42-2.70-40.17-2.57L-40.17-2.57Z"/><path fill="#000000" opacity="1" d="M-28.81 0.89L-33.18 0.89Q-33.18 2.23-32.72 2.79Q-32.27 3.36-31.26 3.36L-31.26 3.36Q-30.81 3.36-30.47 3.17Q-30.13 2.98-29.82 2.56L-29.82 2.56L-28.91 3.12Q-29.29 3.70-29.84 4.01Q-30.40 4.32-31.34 4.32L-31.34 4.32Q-32.84 4.32-33.58 3.45Q-34.32 2.58-34.32 0.82L-34.32 0.82Q-34.32-1.03-33.60-1.91Q-32.88-2.79-31.42-2.79L-31.42-2.79Q-30.11-2.79-29.46-2.04Q-28.81-1.29-28.81 0.28L-28.81 0.28L-28.81 0.89ZM-33.17 0.03L-29.88 0.03Q-29.90-0.88-30.26-1.38Q-30.63-1.88-31.46-1.88L-31.46-1.88Q-32.25-1.88-32.64-1.42Q-33.04-0.97-33.17 0.03L-33.17 0.03Z"/><path fill="#000000" opacity="1" d="M-16.47 4.13L-17.57 4.13L-17.57 0.16Q-17.57-0.80-17.67-1.12Q-17.76-1.44-17.98-1.58Q-18.20-1.73-18.62-1.73L-18.62-1.73Q-19.04-1.73-19.60-1.41Q-20.17-1.09-20.69-0.63L-20.69-0.63L-20.69 4.13L-21.80 4.13L-21.80-2.60L-20.69-2.60L-20.69-1.60Q-20.22-2.07-19.60-2.43Q-18.98-2.79-18.35-2.79L-18.35-2.79Q-17.38-2.79-16.92-2.24Q-16.47-1.68-16.47-0.36L-16.47-0.36L-16.47 4.13Z"/><path fill="#000000" opacity="1" d="M-3.74 4.13L-4.85 4.13L-4.85 3.46Q-5.23 3.82-5.76 4.07Q-6.29 4.32-6.89 4.32L-6.89 4.32Q-8.11 4.32-8.77 3.41Q-9.43 2.50-9.43 0.82L-9.43 0.82Q-9.43-0.83-8.71-1.81Q-7.99-2.79-6.72-2.79L-6.72-2.79Q-5.70-2.79-4.85-2.05L-4.85-2.05L-4.85-5.42L-3.74-5.42L-3.74 4.13ZM-4.85 2.47L-4.85-1.09Q-5.73-1.81-6.58-1.81L-6.58-1.81Q-7.33-1.81-7.81-1.18Q-8.28-0.55-8.28 0.79L-8.28 0.79Q-8.28 3.34-6.68 3.34L-6.68 3.34Q-6.16 3.34-5.68 3.07Q-5.20 2.81-4.85 2.47L-4.85 2.47Z"/><path fill="#000000" opacity="1" d="M4.97-4.31L4.97-4.31Q4.97-3.92 4.80-3.78Q4.62-3.65 4.25-3.65L4.25-3.65Q3.84-3.65 3.69-3.82Q3.53-3.99 3.53-4.31L3.53-4.31Q3.53-4.65 3.70-4.80Q3.87-4.96 4.25-4.96L4.25-4.96Q4.64-4.96 4.80-4.81Q4.97-4.66 4.97-4.31ZM4.80 4.13L3.69 4.13L3.69-2.60L4.80-2.60L4.80 4.13Z"/><path fill="#000000" opacity="1" d="M16.60 4.13L11.67 4.13L11.67 3.29L15.17-1.68L11.74-1.68L11.74-2.60L16.50-2.60L16.50-1.80L12.98 3.20L16.60 3.20L16.60 4.13Z"/><path fill="#000000" opacity="1" d="M28.39 4.13L27.29 4.13L27.29 3.29Q26.78 3.73 26.26 4.03Q25.74 4.32 25.09 4.32L25.09 4.32Q24.12 4.32 23.60 3.74Q23.08 3.15 23.08 2.23L23.08 2.23Q23.08 1.54 23.35 1.08Q23.62 0.62 24.14 0.36Q24.66 0.09 25.64-0.02L25.64-0.02L27.29-0.17L27.29-0.50Q27.29-1.27 26.86-1.56Q26.43-1.84 25.66-1.84L25.66-1.84Q24.98-1.84 24.62-1.60Q24.25-1.36 24.09-1.09L24.09-1.09L23.18-1.64Q23.49-2.20 24.12-2.50Q24.75-2.79 25.69-2.79L25.69-2.79Q27.14-2.79 27.77-2.27Q28.39-1.74 28.39-0.45L28.39-0.45L28.39 4.13ZM27.29 2.36L27.29 0.71L26.21 0.82Q25.12 0.91 24.67 1.24Q24.22 1.57 24.22 2.21L24.22 2.21Q24.22 2.81 24.52 3.07Q24.82 3.34 25.43 3.34L25.43 3.34Q25.68 3.34 25.92 3.24Q26.16 3.15 26.40 3.01Q26.64 2.87 26.86 2.70Q27.08 2.52 27.29 2.36L27.29 2.36Z"/><path fill="#000000" opacity="1" d="M41.12-2.60L41.12 3.98Q41.12 5.33 40.45 5.99Q39.78 6.66 38.23 6.66L38.23 6.66Q36.75 6.66 35.79 6.03L35.79 6.03L36.20 5.14Q37.06 5.74 38.23 5.74L38.23 5.74Q39.17 5.74 39.59 5.35Q40.01 4.95 40.01 4.05L40.01 4.05L40.01 3.26Q39.64 3.62 39.11 3.88Q38.58 4.13 37.97 4.13L37.97 4.13Q36.73 4.13 36.08 3.24Q35.44 2.36 35.44 0.69L35.44 0.69Q35.44-0.95 36.16-1.87Q36.89-2.79 38.14-2.79L38.14-2.79Q39.16-2.79 40.01-2.05L40.01-2.05L40.01-2.60L41.12-2.60ZM40.01 2.27L40.01-1.09Q39.14-1.81 38.28-1.81L38.28-1.81Q37.44-1.81 37.01-1.16Q36.58-0.50 36.58 0.67L36.58 0.67Q36.58 1.96 36.98 2.55Q37.39 3.14 38.18 3.14L38.18 3.14Q39.10 3.14 40.01 2.27L40.01 2.27Z"/><path fill="#000000" opacity="1" d="M53.73 0.89L49.36 0.89Q49.36 2.23 49.81 2.79Q50.27 3.36 51.27 3.36L51.27 3.36Q51.72 3.36 52.06 3.17Q52.40 2.98 52.72 2.56L52.72 2.56L53.63 3.12Q53.24 3.70 52.69 4.01Q52.14 4.32 51.20 4.32L51.20 4.32Q49.70 4.32 48.96 3.45Q48.22 2.58 48.22 0.82L48.22 0.82Q48.22-1.03 48.94-1.91Q49.66-2.79 51.11-2.79L51.11-2.79Q52.42-2.79 53.08-2.04Q53.73-1.29 53.73 0.28L53.73 0.28L53.73 0.89ZM49.37 0.03L52.65 0.03Q52.64-0.88 52.27-1.38Q51.90-1.88 51.08-1.88L51.08-1.88Q50.29-1.88 49.89-1.42Q49.50-0.97 49.37 0.03L49.37 0.03Z"/><path fill="#000000" opacity="1" d="M69.59 4.13L68.49 4.13L68.49 0.16Q68.49-0.84 68.41-1.16Q68.33-1.48 68.14-1.60Q67.95-1.73 67.56-1.73L67.56-1.73Q67.22-1.73 66.81-1.49Q66.39-1.25 65.72-0.63L65.72-0.63L65.72 4.13L64.61 4.13L64.61 0.16Q64.61-0.79 64.54-1.12Q64.46-1.45 64.27-1.59Q64.09-1.73 63.70-1.73L63.70-1.73Q63.34-1.73 62.86-1.44Q62.38-1.16 61.84-0.63L61.84-0.63L61.84 4.13L60.74 4.13L60.74-2.60L61.84-2.60L61.84-1.60Q62.28-2.08 62.82-2.43Q63.36-2.79 63.97-2.79L63.97-2.79Q64.65-2.79 65.06-2.48Q65.47-2.16 65.60-1.48L65.60-1.48Q66.13-2.04 66.67-2.41Q67.22-2.79 67.88-2.79L67.88-2.79Q68.50-2.79 68.87-2.53Q69.24-2.27 69.42-1.78Q69.59-1.29 69.59-0.36L69.59-0.36L69.59 4.13Z"/><path fill="#000000" opacity="1" d=""/><path fill="#000000" opacity="1" d="M91.12 4.13L90.01 4.13L90.01 3.46Q89.63 3.82 89.10 4.07Q88.56 4.32 87.96 4.32L87.96 4.32Q86.75 4.32 86.09 3.41Q85.43 2.50 85.43 0.82L85.43 0.82Q85.43-0.83 86.15-1.81Q86.86-2.79 88.13-2.79L88.13-2.79Q89.15-2.79 90.01-2.05L90.01-2.05L90.01-5.42L91.12-5.42L91.12 4.13ZM90.01 2.47L90.01-1.09Q89.13-1.81 88.27-1.81L88.27-1.81Q87.52-1.81 87.05-1.18Q86.57-0.55 86.57 0.79L86.57 0.79Q86.57 3.34 88.17 3.34L88.17 3.34Q88.70 3.34 89.18 3.07Q89.65 2.81 90.01 2.47L90.01 2.47Z"/><path fill="#000000" opacity="1" d="M103.72 0.89L99.35 0.89Q99.35 2.23 99.80 2.79Q100.26 3.36 101.27 3.36L101.27 3.36Q101.72 3.36 102.06 3.17Q102.40 2.98 102.71 2.56L102.71 2.56L103.62 3.12Q103.24 3.70 102.68 4.01Q102.13 4.32 101.19 4.32L101.19 4.32Q99.69 4.32 98.95 3.45Q98.21 2.58 98.21 0.82L98.21 0.82Q98.21-1.03 98.93-1.91Q99.65-2.79 101.11-2.79L101.11-2.79Q102.41-2.79 103.07-2.04Q103.72-1.29 103.72 0.28L103.72 0.28L103.72 0.89ZM99.36 0.03L102.65 0.03Q102.63-0.88 102.26-1.38Q101.90-1.88 101.07-1.88L101.07-1.88Q100.28-1.88 99.88-1.42Q99.49-0.97 99.36 0.03L99.36 0.03Z"/><path fill="#000000" opacity="1" d=""/><path fill="#000000" opacity="1" d="M127.49 4.13L126.36 4.13L126.36-3.23L123.90 1.71L123.17 1.71L120.74-3.23L120.74 4.13L119.61 4.13L119.61-4.75L121.21-4.75L123.56 0.08L125.94-4.75L127.49-4.75L127.49 4.13Z"/><path fill="#000000" opacity="1" d="M139.92 4.13L138.82 4.13L138.82 3.29Q138.31 3.73 137.79 4.03Q137.27 4.32 136.61 4.32L136.61 4.32Q135.65 4.32 135.13 3.74Q134.61 3.15 134.61 2.23L134.61 2.23Q134.61 1.54 134.88 1.08Q135.15 0.62 135.67 0.36Q136.18 0.09 137.16-0.02L137.16-0.02L138.82-0.17L138.82-0.50Q138.82-1.27 138.39-1.56Q137.95-1.84 137.19-1.84L137.19-1.84Q136.51-1.84 136.14-1.60Q135.77-1.36 135.61-1.09L135.61-1.09L134.71-1.64Q135.02-2.20 135.65-2.50Q136.28-2.79 137.22-2.79L137.22-2.79Q138.66-2.79 139.29-2.27Q139.92-1.74 139.92-0.45L139.92-0.45L139.92 4.13ZM138.82 2.36L138.82 0.71L137.74 0.82Q136.64 0.91 136.20 1.24Q135.75 1.57 135.75 2.21L135.75 2.21Q135.75 2.81 136.05 3.07Q136.35 3.34 136.95 3.34L136.95 3.34Q137.20 3.34 137.45 3.24Q137.69 3.15 137.93 3.01Q138.16 2.87 138.39 2.70Q138.61 2.52 138.82 2.36L138.82 2.36ZM139.28-5.94L137.54-3.62L136.63-3.62L137.77-5.94L139.28-5.94Z"/><path fill="#000000" opacity="1" d="M152.65 6.66L151.54 6.66L151.54 3.46Q151.16 3.82 150.63 4.07Q150.10 4.32 149.50 4.32L149.50 4.32Q148.27 4.32 147.62 3.43Q146.96 2.54 146.96 0.82L146.96 0.82Q146.96-0.88 147.66-1.84Q148.35-2.79 149.60-2.79L149.60-2.79Q150.14-2.79 150.65-2.58Q151.16-2.36 151.54-2.05L151.54-2.05L151.54-2.60L152.65-2.60L152.65 6.66ZM151.54 2.47L151.54-1.09Q151.18-1.39 150.70-1.60Q150.22-1.81 149.76-1.81L149.76-1.81Q149.01-1.81 148.56-1.18Q148.10-0.55 148.10 0.79L148.10 0.79Q148.10 2.13 148.51 2.73Q148.91 3.34 149.71 3.34L149.71 3.34Q150.61 3.34 151.54 2.47L151.54 2.47Z"/><path fill="#000000" opacity="1" d="M165.36 4.13L164.26 4.13L164.26 3.12Q163.74 3.64 163.13 3.98Q162.51 4.32 161.92 4.32L161.92 4.32Q161.25 4.32 160.83 4.07Q160.41 3.82 160.22 3.31Q160.03 2.80 160.03 1.89L160.03 1.89L160.03-2.60L161.13-2.60L161.13 1.37Q161.13 2.33 161.23 2.65Q161.33 2.97 161.55 3.12Q161.77 3.26 162.19 3.26L162.19 3.26Q162.60 3.26 163.17 2.94Q163.73 2.61 164.26 2.16L164.26 2.16L164.26-2.60L165.36-2.60L165.36 4.13Z"/><path fill="#000000" opacity="1" d="M174.07-4.31L174.07-4.31Q174.07-3.92 173.89-3.78Q173.72-3.65 173.34-3.65L173.34-3.65Q172.94-3.65 172.79-3.82Q172.63-3.99 172.63-4.31L172.63-4.31Q172.63-4.65 172.80-4.80Q172.97-4.96 173.34-4.96L173.34-4.96Q173.73-4.96 173.90-4.81Q174.07-4.66 174.07-4.31ZM173.89 4.13L172.79 4.13L172.79-2.60L173.89-2.60L173.89 4.13Z"/><path fill="#000000" opacity="1" d="M186.66 4.13L185.55 4.13L185.55 0.16Q185.55-0.80 185.46-1.12Q185.36-1.44 185.14-1.58Q184.92-1.73 184.51-1.73L184.51-1.73Q184.08-1.73 183.52-1.41Q182.96-1.09 182.43-0.63L182.43-0.63L182.43 4.13L181.33 4.13L181.33-2.60L182.43-2.60L182.43-1.60Q182.90-2.07 183.52-2.43Q184.14-2.79 184.77-2.79L184.77-2.79Q185.75-2.79 186.20-2.24Q186.66-1.68 186.66-0.36L186.66-0.36L186.66 4.13Z"/><path fill="#000000" opacity="1" d="M198.96 4.13L197.86 4.13L197.86 3.29Q197.35 3.73 196.83 4.03Q196.31 4.32 195.65 4.32L195.65 4.32Q194.69 4.32 194.17 3.74Q193.65 3.15 193.65 2.23L193.65 2.23Q193.65 1.54 193.92 1.08Q194.19 0.62 194.71 0.36Q195.22 0.09 196.20-0.02L196.20-0.02L197.86-0.17L197.86-0.50Q197.86-1.27 197.43-1.56Q196.99-1.84 196.23-1.84L196.23-1.84Q195.55-1.84 195.18-1.60Q194.81-1.36 194.65-1.09L194.65-1.09L193.75-1.64Q194.06-2.20 194.69-2.50Q195.32-2.79 196.26-2.79L196.26-2.79Q197.70-2.79 198.33-2.27Q198.96-1.74 198.96-0.45L198.96-0.45L198.96 4.13ZM197.86 2.36L197.86 0.71L196.78 0.82Q195.68 0.91 195.24 1.24Q194.79 1.57 194.79 2.21L194.79 2.21Q194.79 2.81 195.09 3.07Q195.39 3.34 195.99 3.34L195.99 3.34Q196.24 3.34 196.49 3.24Q196.73 3.15 196.97 3.01Q197.20 2.87 197.43 2.70Q197.65 2.52 197.86 2.36L197.86 2.36Z"/></g></svg>
